<svg width="152" height="41" viewBox="0 0 152 41" fill="none" xmlns="http://www.w3.org/2000/svg">
<path d="M81.6289 6.09863C81.6289 4.50358 82.0231 3.25488 82.8115 2.35254C83.6045 1.44564 84.7415 0.992188 86.2227 0.992188C87.0885 0.992188 87.804 1.1403 88.3691 1.43652C88.9342 1.72819 89.3398 2.12923 89.5859 2.63965C89.7135 2.90397 89.693 3.08626 89.5244 3.18652L88.9844 3.50098C88.8021 3.60579 88.6403 3.51921 88.499 3.24121C88.3486 2.9541 88.1025 2.68522 87.7607 2.43457C87.4189 2.18392 86.929 2.05859 86.291 2.05859C85.1517 2.05859 84.3223 2.41406 83.8027 3.125C83.2878 3.83138 83.0303 4.82259 83.0303 6.09863C83.0303 7.37467 83.2878 8.36816 83.8027 9.0791C84.3223 9.78548 85.1517 10.1387 86.291 10.1387C86.9473 10.1387 87.4714 9.98828 87.8633 9.6875C88.2598 9.38672 88.5469 9.07227 88.7246 8.74414C88.8659 8.47982 89.0299 8.40007 89.2168 8.50488L89.7842 8.82617C89.9482 8.92188 89.9619 9.10417 89.8252 9.37305C89.5563 9.89714 89.1188 10.3346 88.5127 10.6855C87.9066 11.0319 87.1432 11.2051 86.2227 11.2051C84.7415 11.2051 83.6045 10.7539 82.8115 9.85156C82.0231 8.94466 81.6289 7.69368 81.6289 6.09863ZM91.2539 11C91.0169 11 90.9554 10.8496 91.0693 10.5488L94.4736 1.61426C94.5785 1.33626 94.7288 1.19727 94.9248 1.19727H95.8818C96.0778 1.19727 96.2282 1.33626 96.333 1.61426L99.7373 10.5488C99.8512 10.8496 99.7897 11 99.5527 11H98.8555C98.6139 11 98.4499 10.8883 98.3633 10.665L97.5088 8.40234H93.2979L92.4434 10.665C92.3568 10.8883 92.1927 11 91.9512 11H91.2539ZM93.7285 7.28125H97.0781L96.0322 4.54688C95.9365 4.29167 95.8408 4.00911 95.7451 3.69922C95.654 3.38932 95.5446 2.94954 95.417 2.37988H95.3896C95.262 2.94954 95.1504 3.38932 95.0547 3.69922C94.9635 4.00911 94.8701 4.29167 94.7744 4.54688L93.7285 7.28125ZM101.385 11C101.157 11 101.043 10.8747 101.043 10.624V1.57324C101.043 1.32259 101.157 1.19727 101.385 1.19727H102.014C102.242 1.19727 102.355 1.32259 102.355 1.57324V10.624C102.355 10.8747 102.242 11 102.014 11H101.385ZM105.021 11C104.794 11 104.68 10.8747 104.68 10.624V1.57324C104.68 1.32259 104.794 1.19727 105.021 1.19727H108.323C109.64 1.19727 110.593 1.44336 111.181 1.93555C111.773 2.42773 112.069 3.07715 112.069 3.88379C112.069 4.59473 111.83 5.19173 111.352 5.6748C110.878 6.15788 110.201 6.43587 109.321 6.50879V6.52246C109.786 6.86882 110.094 7.13314 110.244 7.31543C110.395 7.49316 110.563 7.7347 110.75 8.04004L112.295 10.5488C112.482 10.8496 112.441 11 112.172 11H111.393C111.178 11 111.019 10.9111 110.914 10.7334L109.492 8.29297C109.287 7.94206 108.993 7.59798 108.61 7.26074C108.228 6.9235 107.751 6.75488 107.182 6.75488H105.992V10.624C105.992 10.8747 105.878 11 105.65 11H105.021ZM105.992 5.63379H107.968C108.856 5.63379 109.54 5.51758 110.019 5.28516C110.497 5.04818 110.736 4.55371 110.736 3.80176C110.736 3.22754 110.518 2.83789 110.08 2.63281C109.643 2.42318 109.048 2.31836 108.296 2.31836H105.992V5.63379ZM113.676 6.09863C113.676 4.50358 114.068 3.25488 114.852 2.35254C115.64 1.44564 116.775 0.992188 118.256 0.992188C119.737 0.992188 120.869 1.44564 121.653 2.35254C122.442 3.25488 122.836 4.50358 122.836 6.09863C122.836 7.69368 122.442 8.94466 121.653 9.85156C120.869 10.7539 119.737 11.2051 118.256 11.2051C116.775 11.2051 115.64 10.7539 114.852 9.85156C114.068 8.94466 113.676 7.69368 113.676 6.09863ZM115.077 6.09863C115.077 7.37467 115.339 8.36816 115.863 9.0791C116.387 9.78548 117.185 10.1387 118.256 10.1387C119.327 10.1387 120.124 9.78548 120.648 9.0791C121.173 8.36816 121.435 7.37467 121.435 6.09863C121.435 4.82259 121.173 3.83138 120.648 3.125C120.124 2.41406 119.327 2.05859 118.256 2.05859C117.185 2.05859 116.387 2.41406 115.863 3.125C115.339 3.83138 115.077 4.82259 115.077 6.09863ZM82.5039 25C82.276 25 82.1621 24.8747 82.1621 24.624V15.5732C82.1621 15.3226 82.276 15.1973 82.5039 15.1973H88.0752C88.3258 15.1973 88.4512 15.2998 88.4512 15.5049V16.0107C88.4512 16.2158 88.3258 16.3184 88.0752 16.3184H83.4746V19.5586H87.4873C87.738 19.5586 87.8633 19.6611 87.8633 19.8662V20.3721C87.8633 20.5771 87.738 20.6797 87.4873 20.6797H83.4746V24.624C83.4746 24.8747 83.3607 25 83.1328 25H82.5039ZM90.4746 25C90.2467 25 90.1328 24.8747 90.1328 24.624V15.5732C90.1328 15.3226 90.2467 15.1973 90.4746 15.1973H91.1035C91.3314 15.1973 91.4453 15.3226 91.4453 15.5732V24.624C91.4453 24.8747 91.3314 25 91.1035 25H90.4746ZM94.1113 25C93.8835 25 93.7695 24.8747 93.7695 24.624V15.5732C93.7695 15.3226 93.8835 15.1973 94.1113 15.1973H94.9863C95.3053 15.1973 95.5332 15.3112 95.6699 15.5391L99.9492 22.71H99.9766C99.9674 22.5277 99.9629 22.3454 99.9629 22.1631V15.5732C99.9629 15.3226 100.077 15.1973 100.305 15.1973H100.934C101.161 15.1973 101.275 15.3226 101.275 15.5732V24.624C101.275 24.8747 101.161 25 100.934 25H100.332C100.013 25 99.7852 24.8861 99.6484 24.6582L95.0957 17.0498H95.0684C95.0775 17.2321 95.082 17.4144 95.082 17.5967V24.624C95.082 24.8747 94.9681 25 94.7402 25H94.1113ZM103.107 25C102.87 25 102.809 24.8496 102.923 24.5488L106.327 15.6143C106.432 15.3363 106.582 15.1973 106.778 15.1973H107.735C107.931 15.1973 108.082 15.3363 108.187 15.6143L111.591 24.5488C111.705 24.8496 111.643 25 111.406 25H110.709C110.467 25 110.303 24.8883 110.217 24.665L109.362 22.4023H105.151L104.297 24.665C104.21 24.8883 104.046 25 103.805 25H103.107ZM105.582 21.2812H108.932L107.886 18.5469C107.79 18.2917 107.694 18.0091 107.599 17.6992C107.507 17.3893 107.398 16.9495 107.271 16.3799H107.243C107.116 16.9495 107.004 17.3893 106.908 17.6992C106.817 18.0091 106.724 18.2917 106.628 18.5469L105.582 21.2812ZM113.238 25C113.01 25 112.896 24.8747 112.896 24.624V15.5732C112.896 15.3226 113.01 15.1973 113.238 15.1973H114.113C114.432 15.1973 114.66 15.3112 114.797 15.5391L119.076 22.71H119.104C119.094 22.5277 119.09 22.3454 119.09 22.1631V15.5732C119.09 15.3226 119.204 15.1973 119.432 15.1973H120.061C120.288 15.1973 120.402 15.3226 120.402 15.5732V24.624C120.402 24.8747 120.288 25 120.061 25H119.459C119.14 25 118.912 24.8861 118.775 24.6582L114.223 17.0498H114.195C114.204 17.2321 114.209 17.4144 114.209 17.5967V24.624C114.209 24.8747 114.095 25 113.867 25H113.238ZM122.193 20.0986C122.193 18.5036 122.588 17.2549 123.376 16.3525C124.169 15.4456 125.306 14.9922 126.787 14.9922C127.653 14.9922 128.368 15.1403 128.934 15.4365C129.499 15.7282 129.904 16.1292 130.15 16.6396C130.278 16.904 130.257 17.0863 130.089 17.1865L129.549 17.501C129.367 17.6058 129.205 17.5192 129.063 17.2412C128.913 16.9541 128.667 16.6852 128.325 16.4346C127.983 16.1839 127.493 16.0586 126.855 16.0586C125.716 16.0586 124.887 16.4141 124.367 17.125C123.852 17.8314 123.595 18.8226 123.595 20.0986C123.595 21.3747 123.852 22.3682 124.367 23.0791C124.887 23.7855 125.716 24.1387 126.855 24.1387C127.512 24.1387 128.036 23.9883 128.428 23.6875C128.824 23.3867 129.111 23.0723 129.289 22.7441C129.43 22.4798 129.594 22.4001 129.781 22.5049L130.349 22.8262C130.513 22.9219 130.526 23.1042 130.39 23.373C130.121 23.8971 129.683 24.3346 129.077 24.6855C128.471 25.0319 127.708 25.2051 126.787 25.2051C125.306 25.2051 124.169 24.7539 123.376 23.8516C122.588 22.9447 122.193 21.6937 122.193 20.0986ZM132.652 25C132.424 25 132.311 24.8747 132.311 24.624V15.5732C132.311 15.3226 132.424 15.1973 132.652 15.1973H133.281C133.509 15.1973 133.623 15.3226 133.623 15.5732V24.624C133.623 24.8747 133.509 25 133.281 25H132.652ZM135.455 25C135.218 25 135.157 24.8496 135.271 24.5488L138.675 15.6143C138.78 15.3363 138.93 15.1973 139.126 15.1973H140.083C140.279 15.1973 140.429 15.3363 140.534 15.6143L143.938 24.5488C144.052 24.8496 143.991 25 143.754 25H143.057C142.815 25 142.651 24.8883 142.564 24.665L141.71 22.4023H137.499L136.645 24.665C136.558 24.8883 136.394 25 136.152 25H135.455ZM137.93 21.2812H141.279L140.233 18.5469C140.138 18.2917 140.042 18.0091 139.946 17.6992C139.855 17.3893 139.746 16.9495 139.618 16.3799H139.591C139.463 16.9495 139.352 17.3893 139.256 17.6992C139.165 18.0091 139.071 18.2917 138.976 18.5469L137.93 21.2812ZM145.586 25C145.358 25 145.244 24.8747 145.244 24.624V15.5732C145.244 15.3226 145.358 15.1973 145.586 15.1973H146.215C146.443 15.1973 146.557 15.3226 146.557 15.5732V23.8789H151.089C151.34 23.8789 151.465 23.9814 151.465 24.1865V24.6924C151.465 24.8975 151.34 25 151.089 25H145.586ZM82.5039 39C82.276 39 82.1621 38.8747 82.1621 38.624V29.5732C82.1621 29.3226 82.276 29.1973 82.5039 29.1973H83.1328C83.3607 29.1973 83.4746 29.3226 83.4746 29.5732V33.3398H88.2461V29.5732C88.2461 29.3226 88.36 29.1973 88.5879 29.1973H89.2168C89.4447 29.1973 89.5586 29.3226 89.5586 29.5732V38.624C89.5586 38.8747 89.4447 39 89.2168 39H88.5879C88.36 39 88.2461 38.8747 88.2461 38.624V34.4609H83.4746V38.624C83.4746 38.8747 83.3607 39 83.1328 39H82.5039ZM91.3496 34.0986C91.3496 32.5036 91.7415 31.2549 92.5254 30.3525C93.3138 29.4456 94.4486 28.9922 95.9297 28.9922C97.4108 28.9922 98.5433 29.4456 99.3271 30.3525C100.116 31.2549 100.51 32.5036 100.51 34.0986C100.51 35.6937 100.116 36.9447 99.3271 37.8516C98.5433 38.7539 97.4108 39.2051 95.9297 39.2051C94.4486 39.2051 93.3138 38.7539 92.5254 37.8516C91.7415 36.9447 91.3496 35.6937 91.3496 34.0986ZM92.751 34.0986C92.751 35.3747 93.013 36.3682 93.5371 37.0791C94.0612 37.7855 94.8587 38.1387 95.9297 38.1387C97.0007 38.1387 97.7982 37.7855 98.3223 37.0791C98.8464 36.3682 99.1084 35.3747 99.1084 34.0986C99.1084 32.8226 98.8464 31.8314 98.3223 31.125C97.7982 30.4141 97.0007 30.0586 95.9297 30.0586C94.8587 30.0586 94.0612 30.4141 93.5371 31.125C93.013 31.8314 92.751 32.8226 92.751 34.0986ZM102.643 39C102.415 39 102.301 38.8747 102.301 38.624V29.5732C102.301 29.3226 102.415 29.1973 102.643 29.1973H103.271C103.499 29.1973 103.613 29.3226 103.613 29.5732V37.8789H108.146C108.396 37.8789 108.521 37.9814 108.521 38.1865V38.6924C108.521 38.8975 108.396 39 108.146 39H102.643ZM110.408 39C110.18 39 110.066 38.8747 110.066 38.624V29.5732C110.066 29.3226 110.18 29.1973 110.408 29.1973H112.931C114.863 29.1973 116.205 29.6257 116.957 30.4824C117.714 31.3346 118.092 32.5355 118.092 34.085C118.092 35.6344 117.714 36.8421 116.957 37.708C116.205 38.5693 114.863 39 112.931 39H110.408ZM111.379 37.8789H112.869C114.373 37.8789 115.385 37.5599 115.904 36.9219C116.428 36.2839 116.69 35.3382 116.69 34.085C116.69 32.8317 116.428 31.8883 115.904 31.2549C115.385 30.6214 114.373 30.3047 112.869 30.3047H111.379V37.8789ZM120.225 39C119.997 39 119.883 38.8747 119.883 38.624V29.5732C119.883 29.3226 119.997 29.1973 120.225 29.1973H120.854C121.081 29.1973 121.195 29.3226 121.195 29.5732V38.624C121.195 38.8747 121.081 39 120.854 39H120.225ZM123.861 39C123.633 39 123.52 38.8747 123.52 38.624V29.5732C123.52 29.3226 123.633 29.1973 123.861 29.1973H124.736C125.055 29.1973 125.283 29.3112 125.42 29.5391L129.699 36.71H129.727C129.717 36.5277 129.713 36.3454 129.713 36.1631V29.5732C129.713 29.3226 129.827 29.1973 130.055 29.1973H130.684C130.911 29.1973 131.025 29.3226 131.025 29.5732V38.624C131.025 38.8747 130.911 39 130.684 39H130.082C129.763 39 129.535 38.8861 129.398 38.6582L124.846 31.0498H124.818C124.827 31.2321 124.832 31.4144 124.832 31.5967V38.624C124.832 38.8747 124.718 39 124.49 39H123.861ZM132.816 34.0986C132.816 32.5036 133.229 31.2549 134.054 30.3525C134.879 29.4456 136.025 28.9922 137.492 28.9922C138.372 28.9922 139.09 29.1449 139.646 29.4502C140.201 29.751 140.609 30.1064 140.869 30.5166C141.029 30.7718 141.026 30.9564 140.862 31.0703L140.35 31.4258C140.181 31.5443 140.012 31.4736 139.844 31.2139C139.707 31.0088 139.45 30.765 139.071 30.4824C138.693 30.1999 138.189 30.0586 137.561 30.0586C136.444 30.0586 135.608 30.4141 135.052 31.125C134.496 31.8314 134.218 32.8226 134.218 34.0986C134.218 35.3747 134.489 36.3682 135.031 37.0791C135.574 37.7855 136.439 38.1387 137.629 38.1387C138.221 38.1387 138.736 38.068 139.174 37.9268C139.616 37.7809 139.926 37.5804 140.104 37.3252V35.5137H138.073C137.823 35.5137 137.697 35.4111 137.697 35.2061V34.7002C137.697 34.4951 137.823 34.3926 138.073 34.3926H141.04C141.291 34.3926 141.416 34.4951 141.416 34.7002V37.9268C140.86 38.3324 140.304 38.6468 139.748 38.8701C139.192 39.0934 138.463 39.2051 137.561 39.2051C136.057 39.2051 134.89 38.7539 134.061 37.8516C133.231 36.9447 132.816 35.6937 132.816 34.0986Z" fill="#820024"/>
<path d="M26.5 8.41265V1.11719H19.8881C8.9458 1.11719 0.114948 10.0622 0.25555 21.0037C0.391786 31.6053 8.92024 40.1838 19.5209 40.3821L26.5 40.5127V33.7036H20.6455C13.6616 33.7036 8 28.042 8 21.0581C8 14.0742 13.6616 8.41265 20.6455 8.41265H26.5Z" fill="#002A5C"/>
<path d="M29 7.92629V40.9991H36V25.4354H41V18.6263H36V8.41265H47.5V1.11719H29L34 5.0081L29 7.92629Z" fill="#820024"/>
<path d="M50 40.5127V1.11719H57V18.6263H69V1.11719H76V40.5127H69V25.4354H57V40.5127H50Z" fill="#002A5C"/>
</svg>
